{
    "asset" : {
        "generator" : "Khronos glTF Blender I/O v1.0.5",
        "version" : "2.0"
    },
    "scene" : 0,
    "scenes" : [
        {
            "name" : "Scene",
            "nodes" : [
                0,
                1,
                2
            ]
        }
    ],
    "nodes" : [
        {
            "name" : "Light",
            "rotation" : [
                0.16907575726509094,
                0.7558803558349609,
                -0.27217137813568115,
                0.570947527885437
            ],
            "translation" : [
                4.076245307922363,
                5.903861999511719,
                -1.0054539442062378
            ]
        },
        {
            "name" : "Camera",
            "rotation" : [
                0.483536034822464,
                0.33687159419059753,
                -0.20870360732078552,
                0.7804827094078064
            ],
            "translation" : [
                7.358891487121582,
                4.958309173583984,
                6.925790786743164
            ]
        },
        {
            "mesh" : 0,
            "name" : "17",
            "rotation" : [
                0.7071068286895752,
                0,
                0,
                0.7071067094802856
            ]
        }
    ],
    "materials" : [
        {
            "doubleSided" : true,
            "name" : "Material_1.002",
            "pbrMetallicRoughness" : {
                "baseColorFactor" : [
                    1,
                    1,
                    1,
                    1
                ],
                "metallicFactor" : 0,
                "roughnessFactor" : 1
            }
        },
        {
            "doubleSided" : true,
            "name" : "Material_2.002",
            "pbrMetallicRoughness" : {
                "baseColorTexture" : {
                    "index" : 0,
                    "texCoord" : 0
                },
                "metallicFactor" : 0,
                "roughnessFactor" : 1
            }
        },
        {
            "doubleSided" : true,
            "name" : "Material_5.002",
            "pbrMetallicRoughness" : {
                "baseColorFactor" : [
                    0.9490200281143188,
                    0.9490200281143188,
                    0.9490200281143188,
                    1
                ],
                "metallicFactor" : 0,
                "roughnessFactor" : 1
            }
        },
        {
            "doubleSided" : true,
            "name" : "Material_3.002",
            "pbrMetallicRoughness" : {
                "baseColorTexture" : {
                    "index" : 1,
                    "texCoord" : 0
                },
                "metallicFactor" : 0,
                "roughnessFactor" : 1
            }
        },
        {
            "doubleSided" : true,
            "name" : "Material_4.002",
            "pbrMetallicRoughness" : {
                "baseColorFactor" : [
                    0.21960799396038055,
                    0.20784300565719604,
                    0.3176470100879669,
                    1
                ],
                "metallicFactor" : 0,
                "roughnessFactor" : 1
            }
        },
        {
            "doubleSided" : true,
            "name" : "Material_7.002",
            "pbrMetallicRoughness" : {
                "baseColorTexture" : {
                    "index" : 2,
                    "texCoord" : 0
                },
                "metallicFactor" : 0,
                "roughnessFactor" : 1
            }
        },
        {
            "doubleSided" : true,
            "name" : "Material_8.002",
            "pbrMetallicRoughness" : {
                "baseColorTexture" : {
                    "index" : 3,
                    "texCoord" : 0
                },
                "metallicFactor" : 0,
                "roughnessFactor" : 1
            }
        },
        {
            "doubleSided" : true,
            "name" : "Material_9.002",
            "pbrMetallicRoughness" : {
                "baseColorFactor" : [
                    0.8862749934196472,
                    0.9098039865493774,
                    0.8627449870109558,
                    1
                ],
                "metallicFactor" : 0,
                "roughnessFactor" : 1
            }
        }
    ],
    "meshes" : [
        {
            "name" : "17",
            "primitives" : [
                {
                    "attributes" : {
                        "POSITION" : 0,
                        "NORMAL" : 1,
                        "TEXCOORD_0" : 2
                    },
                    "indices" : 3,
                    "material" : 0
                },
                {
                    "attributes" : {
                        "POSITION" : 4,
                        "NORMAL" : 5,
                        "TEXCOORD_0" : 6
                    },
                    "indices" : 7,
                    "material" : 1
                },
                {
                    "attributes" : {
                        "POSITION" : 8,
                        "NORMAL" : 9,
                        "TEXCOORD_0" : 10
                    },
                    "indices" : 11,
                    "material" : 2
                },
                {
                    "attributes" : {
                        "POSITION" : 12,
                        "NORMAL" : 13,
                        "TEXCOORD_0" : 14
                    },
                    "indices" : 15,
                    "material" : 3
                },
                {
                    "attributes" : {
                        "POSITION" : 16,
                        "NORMAL" : 17,
                        "TEXCOORD_0" : 18
                    },
                    "indices" : 19,
                    "material" : 4
                },
                {
                    "attributes" : {
                        "POSITION" : 20,
                        "NORMAL" : 21,
                        "TEXCOORD_0" : 22
                    },
                    "indices" : 23,
                    "material" : 5
                },
                {
                    "attributes" : {
                        "POSITION" : 24,
                        "NORMAL" : 25,
                        "TEXCOORD_0" : 26
                    },
                    "indices" : 27,
                    "material" : 6
                },
                {
                    "attributes" : {
                        "POSITION" : 28,
                        "NORMAL" : 29,
                        "TEXCOORD_0" : 30
                    },
                    "indices" : 31,
                    "material" : 7
                }
            ]
        }
    ],
    "textures" : [
        {
            "source" : 0
        },
        {
            "source" : 1
        },
        {
            "source" : 2
        },
        {
            "source" : 3
        }
    ],
    "images" : [
        {
            "bufferView" : 8,
            "mimeType" : "image/jpeg",
            "name" : "Material_2"
        },
        {
            "bufferView" : 17,
            "mimeType" : "image/jpeg",
            "name" : "Material_3"
        },
        {
            "bufferView" : 26,
            "mimeType" : "image/jpeg",
            "name" : "Material_7"
        },
        {
            "bufferView" : 31,
            "mimeType" : "image/jpeg",
            "name" : "Material_8"
        }
    ],
    "accessors" : [
        {
            "bufferView" : 0,
            "componentType" : 5126,
            "count" : 19401,
            "max" : [
                89.21869659423828,
                59.0281982421875,
                0.22528299689292908
            ],
            "min" : [
                -80.71240234375,
                -54.36470031738281,
                -15.925200462341309
            ],
            "type" : "VEC3"
        },
        {
            "bufferView" : 1,
            "componentType" : 5126,
            "count" : 19401,
            "type" : "VEC3"
        },
        {
            "bufferView" : 2,
            "componentType" : 5126,
            "count" : 19401,
            "type" : "VEC2"
        },
        {
            "bufferView" : 3,
            "componentType" : 5123,
            "count" : 20544,
            "type" : "SCALAR"
        },
        {
            "bufferView" : 4,
            "componentType" : 5126,
            "count" : 5987,
            "max" : [
                74.55580139160156,
                48.840301513671875,
                -1.9454799890518188
            ],
            "min" : [
                -74.11000061035156,
                -41.610599517822266,
                -26.171199798583984
            ],
            "type" : "VEC3"
        },
        {
            "bufferView" : 5,
            "componentType" : 5126,
            "count" : 5987,
            "type" : "VEC3"
        },
        {
            "bufferView" : 6,
            "componentType" : 5126,
            "count" : 5987,
            "type" : "VEC2"
        },
        {
            "bufferView" : 7,
            "componentType" : 5123,
            "count" : 11376,
            "type" : "SCALAR"
        },
        {
            "bufferView" : 9,
            "componentType" : 5126,
            "count" : 3004,
            "max" : [
                61.77259826660156,
                50.53689956665039,
                0.4357849955558777
            ],
            "min" : [
                -70.35489654541016,
                -35.255699157714844,
                -19.506000518798828
            ],
            "type" : "VEC3"
        },
        {
            "bufferView" : 10,
            "componentType" : 5126,
            "count" : 3004,
            "type" : "VEC3"
        },
        {
            "bufferView" : 11,
            "componentType" : 5126,
            "count" : 3004,
            "type" : "VEC2"
        },
        {
            "bufferView" : 12,
            "componentType" : 5123,
            "count" : 3036,
            "type" : "SCALAR"
        },
        {
            "bufferView" : 13,
            "componentType" : 5126,
            "count" : 18115,
            "max" : [
                71.46060180664062,
                46.582698822021484,
                -0.4138619899749756
            ],
            "min" : [
                -70.27130126953125,
                -39.161800384521484,
                -27.03219985961914
            ],
            "type" : "VEC3"
        },
        {
            "bufferView" : 14,
            "componentType" : 5126,
            "count" : 18115,
            "type" : "VEC3"
        },
        {
            "bufferView" : 15,
            "componentType" : 5126,
            "count" : 18115,
            "type" : "VEC2"
        },
        {
            "bufferView" : 16,
            "componentType" : 5123,
            "count" : 34596,
            "type" : "SCALAR"
        },
        {
            "bufferView" : 18,
            "componentType" : 5126,
            "count" : 12696,
            "max" : [
                66.15910339355469,
                11.901300430297852,
                -2.6453800201416016
            ],
            "min" : [
                -51.2681999206543,
                -25.285499572753906,
                -21.224300384521484
            ],
            "type" : "VEC3"
        },
        {
            "bufferView" : 19,
            "componentType" : 5126,
            "count" : 12696,
            "type" : "VEC3"
        },
        {
            "bufferView" : 20,
            "componentType" : 5126,
            "count" : 12696,
            "type" : "VEC2"
        },
        {
            "bufferView" : 21,
            "componentType" : 5123,
            "count" : 12888,
            "type" : "SCALAR"
        },
        {
            "bufferView" : 22,
            "componentType" : 5126,
            "count" : 4094,
            "max" : [
                68.87090301513672,
                34.80830001831055,
                -0.7095699906349182
            ],
            "min" : [
                -65.9114990234375,
                -42.439998626708984,
                -20.53219985961914
            ],
            "type" : "VEC3"
        },
        {
            "bufferView" : 23,
            "componentType" : 5126,
            "count" : 4094,
            "type" : "VEC3"
        },
        {
            "bufferView" : 24,
            "componentType" : 5126,
            "count" : 4094,
            "type" : "VEC2"
        },
        {
            "bufferView" : 25,
            "componentType" : 5123,
            "count" : 6048,
            "type" : "SCALAR"
        },
        {
            "bufferView" : 27,
            "componentType" : 5126,
            "count" : 8693,
            "max" : [
                71.8322982788086,
                40.8755989074707,
                -1.9832600355148315
            ],
            "min" : [
                -63.69490051269531,
                -39.31959915161133,
                -22.08609962463379
            ],
            "type" : "VEC3"
        },
        {
            "bufferView" : 28,
            "componentType" : 5126,
            "count" : 8693,
            "type" : "VEC3"
        },
        {
            "bufferView" : 29,
            "componentType" : 5126,
            "count" : 8693,
            "type" : "VEC2"
        },
        {
            "bufferView" : 30,
            "componentType" : 5123,
            "count" : 16632,
            "type" : "SCALAR"
        },
        {
            "bufferView" : 32,
            "componentType" : 5126,
            "count" : 5146,
            "max" : [
                56.145999908447266,
                33.628700256347656,
                1.375830054283142
            ],
            "min" : [
                -69.25910186767578,
                -38.47129821777344,
                -24.63010025024414
            ],
            "type" : "VEC3"
        },
        {
            "bufferView" : 33,
            "componentType" : 5126,
            "count" : 5146,
            "type" : "VEC3"
        },
        {
            "bufferView" : 34,
            "componentType" : 5126,
            "count" : 5146,
            "type" : "VEC2"
        },
        {
            "bufferView" : 35,
            "componentType" : 5123,
            "count" : 5376,
            "type" : "SCALAR"
        }
    ],
    "bufferViews" : [
        {
            "buffer" : 0,
            "byteLength" : 232812,
            "byteOffset" : 0
        },
        {
            "buffer" : 0,
            "byteLength" : 232812,
            "byteOffset" : 232812
        },
        {
            "buffer" : 0,
            "byteLength" : 155208,
            "byteOffset" : 465624
        },
        {
            "buffer" : 0,
            "byteLength" : 41088,
            "byteOffset" : 620832
        },
        {
            "buffer" : 0,
            "byteLength" : 71844,
            "byteOffset" : 661920
        },
        {
            "buffer" : 0,
            "byteLength" : 71844,
            "byteOffset" : 733764
        },
        {
            "buffer" : 0,
            "byteLength" : 47896,
            "byteOffset" : 805608
        },
        {
            "buffer" : 0,
            "byteLength" : 22752,
            "byteOffset" : 853504
        },
        {
            "buffer" : 0,
            "byteLength" : 128140,
            "byteOffset" : 876256
        },
        {
            "buffer" : 0,
            "byteLength" : 36048,
            "byteOffset" : 1004396
        },
        {
            "buffer" : 0,
            "byteLength" : 36048,
            "byteOffset" : 1040444
        },
        {
            "buffer" : 0,
            "byteLength" : 24032,
            "byteOffset" : 1076492
        },
        {
            "buffer" : 0,
            "byteLength" : 6072,
            "byteOffset" : 1100524
        },
        {
            "buffer" : 0,
            "byteLength" : 217380,
            "byteOffset" : 1106596
        },
        {
            "buffer" : 0,
            "byteLength" : 217380,
            "byteOffset" : 1323976
        },
        {
            "buffer" : 0,
            "byteLength" : 144920,
            "byteOffset" : 1541356
        },
        {
            "buffer" : 0,
            "byteLength" : 69192,
            "byteOffset" : 1686276
        },
        {
            "buffer" : 0,
            "byteLength" : 72272,
            "byteOffset" : 1755468
        },
        {
            "buffer" : 0,
            "byteLength" : 152352,
            "byteOffset" : 1827740
        },
        {
            "buffer" : 0,
            "byteLength" : 152352,
            "byteOffset" : 1980092
        },
        {
            "buffer" : 0,
            "byteLength" : 101568,
            "byteOffset" : 2132444
        },
        {
            "buffer" : 0,
            "byteLength" : 25776,
            "byteOffset" : 2234012
        },
        {
            "buffer" : 0,
            "byteLength" : 49128,
            "byteOffset" : 2259788
        },
        {
            "buffer" : 0,
            "byteLength" : 49128,
            "byteOffset" : 2308916
        },
        {
            "buffer" : 0,
            "byteLength" : 32752,
            "byteOffset" : 2358044
        },
        {
            "buffer" : 0,
            "byteLength" : 12096,
            "byteOffset" : 2390796
        },
        {
            "buffer" : 0,
            "byteLength" : 60693,
            "byteOffset" : 2402892
        },
        {
            "buffer" : 0,
            "byteLength" : 104316,
            "byteOffset" : 2463588
        },
        {
            "buffer" : 0,
            "byteLength" : 104316,
            "byteOffset" : 2567904
        },
        {
            "buffer" : 0,
            "byteLength" : 69544,
            "byteOffset" : 2672220
        },
        {
            "buffer" : 0,
            "byteLength" : 33264,
            "byteOffset" : 2741764
        },
        {
            "buffer" : 0,
            "byteLength" : 1260,
            "byteOffset" : 2775028
        },
        {
            "buffer" : 0,
            "byteLength" : 61752,
            "byteOffset" : 2776288
        },
        {
            "buffer" : 0,
            "byteLength" : 61752,
            "byteOffset" : 2838040
        },
        {
            "buffer" : 0,
            "byteLength" : 41168,
            "byteOffset" : 2899792
        },
        {
            "buffer" : 0,
            "byteLength" : 10752,
            "byteOffset" : 2940960
        }
    ],
    "buffers" : [
        {
            "byteLength" : 2951712,
            "uri" : "data:application/octet-stream;base64,"
        }
    ]
}
