{
    "asset" : {
        "generator" : "Khronos glTF Blender I/O v1.0.5",
        "version" : "2.0"
    },
    "scene" : 0,
    "scenes" : [
        {
            "name" : "Scene",
            "nodes" : [
                0,
                1,
                2,
                3,
                4
            ]
        }
    ],
    "nodes" : [
        {
            "mesh" : 0,
            "name" : "14.001",
            "rotation" : [
                0.7071068286895752,
                0,
                0,
                0.7071067094802856
            ]
        },
        {
            "mesh" : 1,
            "name" : "Cube"
        },
        {
            "name" : "Light",
            "rotation" : [
                0.16907575726509094,
                0.7558803558349609,
                -0.27217137813568115,
                0.570947527885437
            ],
            "translation" : [
                4.076245307922363,
                5.903861999511719,
                -1.0054539442062378
            ]
        },
        {
            "name" : "Camera",
            "rotation" : [
                0.483536034822464,
                0.33687159419059753,
                -0.20870360732078552,
                0.7804827094078064
            ],
            "translation" : [
                7.358891487121582,
                4.958309173583984,
                6.925790786743164
            ]
        },
        {
            "name" : "14",
            "rotation" : [
                0.7071068286895752,
                0,
                0,
                0.7071067094802856
            ]
        }
    ],
    "materials" : [
        {
            "doubleSided" : true,
            "name" : "Material_1",
            "pbrMetallicRoughness" : {
                "baseColorFactor" : [
                    0.36078399419784546,
                    0.67843097448349,
                    0.07843100279569626,
                    1
                ],
                "metallicFactor" : 0,
                "roughnessFactor" : 1
            }
        },
        {
            "doubleSided" : true,
            "name" : "Material_2",
            "pbrMetallicRoughness" : {
                "baseColorTexture" : {
                    "index" : 0,
                    "texCoord" : 0
                },
                "metallicFactor" : 0,
                "roughnessFactor" : 1
            }
        },
        {
            "doubleSided" : true,
            "name" : "Material_5",
            "pbrMetallicRoughness" : {
                "baseColorFactor" : [
                    0.9725490212440491,
                    0.9568629860877991,
                    0.9411759972572327,
                    1
                ],
                "metallicFactor" : 0,
                "roughnessFactor" : 1
            }
        },
        {
            "doubleSided" : true,
            "name" : "Material_3",
            "pbrMetallicRoughness" : {
                "baseColorTexture" : {
                    "index" : 1,
                    "texCoord" : 0
                },
                "metallicFactor" : 0,
                "roughnessFactor" : 1
            }
        },
        {
            "doubleSided" : true,
            "name" : "Material_4",
            "pbrMetallicRoughness" : {
                "baseColorFactor" : [
                    0.9333329796791077,
                    0.8862749934196472,
                    0.5764709711074829,
                    1
                ],
                "metallicFactor" : 0,
                "roughnessFactor" : 1
            }
        },
        {
            "doubleSided" : true,
            "name" : "Material",
            "pbrMetallicRoughness" : {
                "baseColorFactor" : [
                    0.800000011920929,
                    0.800000011920929,
                    0.800000011920929,
                    1
                ],
                "metallicFactor" : 0,
                "roughnessFactor" : 0.4000000059604645
            }
        }
    ],
    "meshes" : [
        {
            "name" : "14.001",
            "primitives" : [
                {
                    "attributes" : {
                        "POSITION" : 0,
                        "NORMAL" : 1,
                        "TEXCOORD_0" : 2
                    },
                    "indices" : 3,
                    "material" : 0
                },
                {
                    "attributes" : {
                        "POSITION" : 4,
                        "NORMAL" : 5,
                        "TEXCOORD_0" : 6
                    },
                    "indices" : 7,
                    "material" : 1
                },
                {
                    "attributes" : {
                        "POSITION" : 8,
                        "NORMAL" : 9,
                        "TEXCOORD_0" : 10
                    },
                    "indices" : 11,
                    "material" : 2
                },
                {
                    "attributes" : {
                        "POSITION" : 12,
                        "NORMAL" : 13,
                        "TEXCOORD_0" : 14
                    },
                    "indices" : 15,
                    "material" : 3
                },
                {
                    "attributes" : {
                        "POSITION" : 16,
                        "NORMAL" : 17,
                        "TEXCOORD_0" : 18
                    },
                    "indices" : 19,
                    "material" : 4
                }
            ]
        },
        {
            "name" : "Cube",
            "primitives" : [
                {
                    "attributes" : {
                        "POSITION" : 20,
                        "NORMAL" : 21,
                        "TEXCOORD_0" : 22
                    },
                    "indices" : 23,
                    "material" : 5
                }
            ]
        }
    ],
    "textures" : [
        {
            "source" : 0
        },
        {
            "source" : 1
        }
    ],
    "images" : [
        {
            "bufferView" : 8,
            "mimeType" : "image/jpeg",
            "name" : "Material_2"
        },
        {
            "bufferView" : 17,
            "mimeType" : "image/jpeg",
            "name" : "Material_3"
        }
    ],
    "accessors" : [
        {
            "bufferView" : 0,
            "componentType" : 5126,
            "count" : 29968,
            "max" : [
                67.12069702148438,
                67.58219909667969,
                0.7952089905738831
            ],
            "min" : [
                -68.05180358886719,
                -67.58219909667969,
                -83.53810119628906
            ],
            "type" : "VEC3"
        },
        {
            "bufferView" : 1,
            "componentType" : 5126,
            "count" : 29968,
            "type" : "VEC3"
        },
        {
            "bufferView" : 2,
            "componentType" : 5126,
            "count" : 29968,
            "type" : "VEC2"
        },
        {
            "bufferView" : 3,
            "componentType" : 5123,
            "count" : 30240,
            "type" : "SCALAR"
        },
        {
            "bufferView" : 4,
            "componentType" : 5126,
            "count" : 14559,
            "max" : [
                62.55540084838867,
                63.0171012878418,
                0.4700930118560791
            ],
            "min" : [
                -63.48640060424805,
                -63.0172004699707,
                -82.4530029296875
            ],
            "type" : "VEC3"
        },
        {
            "bufferView" : 5,
            "componentType" : 5126,
            "count" : 14559,
            "type" : "VEC3"
        },
        {
            "bufferView" : 6,
            "componentType" : 5126,
            "count" : 14559,
            "type" : "VEC2"
        },
        {
            "bufferView" : 7,
            "componentType" : 5123,
            "count" : 28512,
            "type" : "SCALAR"
        },
        {
            "bufferView" : 9,
            "componentType" : 5126,
            "count" : 3756,
            "max" : [
                42.61439895629883,
                12.55519962310791,
                -70.27909851074219
            ],
            "min" : [
                -3.502779960632324,
                -33.55659866333008,
                -83.57959747314453
            ],
            "type" : "VEC3"
        },
        {
            "bufferView" : 10,
            "componentType" : 5126,
            "count" : 3756,
            "type" : "VEC3"
        },
        {
            "bufferView" : 11,
            "componentType" : 5126,
            "count" : 3756,
            "type" : "VEC2"
        },
        {
            "bufferView" : 12,
            "componentType" : 5123,
            "count" : 3780,
            "type" : "SCALAR"
        },
        {
            "bufferView" : 13,
            "componentType" : 5126,
            "count" : 3517,
            "max" : [
                48.83720016479492,
                34.49660110473633,
                -63.50809860229492
            ],
            "min" : [
                6.388299942016602,
                -42.06340026855469,
                -85.1803970336914
            ],
            "type" : "VEC3"
        },
        {
            "bufferView" : 14,
            "componentType" : 5126,
            "count" : 3517,
            "type" : "VEC3"
        },
        {
            "bufferView" : 15,
            "componentType" : 5126,
            "count" : 3517,
            "type" : "VEC2"
        },
        {
            "bufferView" : 16,
            "componentType" : 5123,
            "count" : 6504,
            "type" : "SCALAR"
        },
        {
            "bufferView" : 18,
            "componentType" : 5126,
            "count" : 921,
            "max" : [
                32.12139892578125,
                27.166099548339844,
                -77.0541000366211
            ],
            "min" : [
                -33.40019989013672,
                -34.4552001953125,
                -85.4364013671875
            ],
            "type" : "VEC3"
        },
        {
            "bufferView" : 19,
            "componentType" : 5126,
            "count" : 921,
            "type" : "VEC3"
        },
        {
            "bufferView" : 20,
            "componentType" : 5126,
            "count" : 921,
            "type" : "VEC2"
        },
        {
            "bufferView" : 21,
            "componentType" : 5123,
            "count" : 960,
            "type" : "SCALAR"
        },
        {
            "bufferView" : 22,
            "componentType" : 5126,
            "count" : 24,
            "max" : [
                1,
                1,
                1
            ],
            "min" : [
                -1,
                -1,
                -1
            ],
            "type" : "VEC3"
        },
        {
            "bufferView" : 23,
            "componentType" : 5126,
            "count" : 24,
            "type" : "VEC3"
        },
        {
            "bufferView" : 24,
            "componentType" : 5126,
            "count" : 24,
            "type" : "VEC2"
        },
        {
            "bufferView" : 25,
            "componentType" : 5123,
            "count" : 36,
            "type" : "SCALAR"
        }
    ],
    "bufferViews" : [
        {
            "buffer" : 0,
            "byteLength" : 359616,
            "byteOffset" : 0
        },
        {
            "buffer" : 0,
            "byteLength" : 359616,
            "byteOffset" : 359616
        },
        {
            "buffer" : 0,
            "byteLength" : 239744,
            "byteOffset" : 719232
        },
        {
            "buffer" : 0,
            "byteLength" : 60480,
            "byteOffset" : 958976
        },
        {
            "buffer" : 0,
            "byteLength" : 174708,
            "byteOffset" : 1019456
        },
        {
            "buffer" : 0,
            "byteLength" : 174708,
            "byteOffset" : 1194164
        },
        {
            "buffer" : 0,
            "byteLength" : 116472,
            "byteOffset" : 1368872
        },
        {
            "buffer" : 0,
            "byteLength" : 57024,
            "byteOffset" : 1485344
        },
        {
            "buffer" : 0,
            "byteLength" : 18658,
            "byteOffset" : 1542368
        },
        {
            "buffer" : 0,
            "byteLength" : 45072,
            "byteOffset" : 1561028
        },
        {
            "buffer" : 0,
            "byteLength" : 45072,
            "byteOffset" : 1606100
        },
        {
            "buffer" : 0,
            "byteLength" : 30048,
            "byteOffset" : 1651172
        },
        {
            "buffer" : 0,
            "byteLength" : 7560,
            "byteOffset" : 1681220
        },
        {
            "buffer" : 0,
            "byteLength" : 42204,
            "byteOffset" : 1688780
        },
        {
            "buffer" : 0,
            "byteLength" : 42204,
            "byteOffset" : 1730984
        },
        {
            "buffer" : 0,
            "byteLength" : 28136,
            "byteOffset" : 1773188
        },
        {
            "buffer" : 0,
            "byteLength" : 13008,
            "byteOffset" : 1801324
        },
        {
            "buffer" : 0,
            "byteLength" : 69577,
            "byteOffset" : 1814332
        },
        {
            "buffer" : 0,
            "byteLength" : 11052,
            "byteOffset" : 1883912
        },
        {
            "buffer" : 0,
            "byteLength" : 11052,
            "byteOffset" : 1894964
        },
        {
            "buffer" : 0,
            "byteLength" : 7368,
            "byteOffset" : 1906016
        },
        {
            "buffer" : 0,
            "byteLength" : 1920,
            "byteOffset" : 1913384
        },
        {
            "buffer" : 0,
            "byteLength" : 288,
            "byteOffset" : 1915304
        },
        {
            "buffer" : 0,
            "byteLength" : 288,
            "byteOffset" : 1915592
        },
        {
            "buffer" : 0,
            "byteLength" : 192,
            "byteOffset" : 1915880
        },
        {
            "buffer" : 0,
            "byteLength" : 72,
            "byteOffset" : 1916072
        }
    ],
    "buffers" : [
        {
            "byteLength" : 1916144,
            "uri" : "data:application/octet-stream;base64,"
        }
    ]
}
